# xmcd
#
# Track frame offsets: 
#        150
#        16710
#        31173
#        46093
#        58070
#        76448
#        91410
#        105435
#        119843
#        135270
#
# Disc length: 1978 seconds
#
# Revision: 17
# Processed by: cddbd v1.5.2PL0 Copyright (c) Steve Scherf et al.
# Submitted via: ExactAudioCopy v1.3
#
DISCID=7207b80a
DTITLE=John Michael Montgomery - Life's A Dance
DYEAR=1992
DGENRE=Country
TTITLE0=Beer And Bones
TTITLE1=Life's A Dance
TTITLE2=When Your Baby Ain't Around
TTITLE3=Line On Love
TTITLE4=I Love The Way You Love Me
TTITLE5=Taking Off The Edge
TTITLE6=Everytime I Fall (It Breaks Her Heart)
TTITLE7=Dream On Texas Ladies
TTITLE8=A Great Memory
TTITLE9=Nickels And Dimes And Love
EXTD=
EXTT0=
EXTT1=
EXTT2=
EXTT3=
EXTT4=
EXTT5=
EXTT6=
EXTT7=
EXTT8=
EXTT9=
PLAYORDER=
